<svg width="507" height="565" viewBox="0 0 507 565" fill="none" xmlns="http://www.w3.org/2000/svg">
<path d="M115 147.644C115 229.027 177.222 295 253.976 295V147.644L115.322 137.532C115.109 140.873 115 144.245 115 147.644Z" fill="#73787B"/>
<path d="M253.872 147.356V0C178.942 0 117.862 62.8731 115 141.577L253.872 147.356Z" fill="#EA7D3C"/>
<path d="M159.784 94.1923C190.989 91.0141 212.37 116.151 253.977 149.956V258.017C200.896 225.423 171.094 207.024 134.118 176.994C122.544 168.713 115 155.16 115 139.844C115 114.922 134.969 94.6679 159.779 94.2031L159.784 94.1923Z" fill="#E8E4DD"/>
<path d="M392.953 147.356C392.953 228.738 330.731 294.711 253.977 294.711V156.024L262.067 184.917L278.536 192.429L304.251 200.519L334.878 198.208L366.66 192.429L384.574 162.958L392.953 147.356Z" fill="#73777A"/>
<path d="M253.399 147.356V0C324.153 0 382.557 56.061 391.257 128.575L389.775 143.31L386.886 155.157L375.328 187.517L357.703 194.74L341.234 197.919L320.72 196.763L297.894 189.829L260.044 171.048L253.399 156.601V147.356Z" fill="#F39C50"/>
<path d="M391.802 128.314C392.561 134.547 392.953 140.903 392.953 147.356C392.953 172.277 387.118 195.754 376.818 216.333L376.773 216.41C376.742 216.465 376.71 216.519 376.68 216.574C356.691 259.187 316.462 274.599 253.399 256.283L253.977 204.809V153.423L254.547 153.957L254.554 153.423C322.4 214.054 374.673 206.764 391.722 127.762L391.729 127.708C391.729 127.713 391.729 127.718 391.73 127.723C391.752 127.622 391.775 127.521 391.797 127.419C391.8 127.718 391.8 128.016 391.802 128.314Z" fill="#E8E4DD"/>
<path d="M256.415 252.959L260.605 255.686L255.151 264.068L250.96 261.341L253.688 257.15L256.415 252.959ZM160.813 202.677C158.499 201.171 157.844 198.074 159.35 195.759C160.856 193.445 163.953 192.789 166.268 194.295L163.541 198.486L160.813 202.677ZM253.688 257.15L250.96 261.341L160.813 202.677L163.541 198.486L166.268 194.295L256.415 252.959L253.688 257.15Z" fill="#060402"/>
<path d="M255.593 206.967L259.546 210.028L253.425 217.935L249.471 214.874L252.532 210.921L255.593 206.967ZM173.193 155.822C171.009 154.131 170.609 150.991 172.3 148.807C173.99 146.624 177.131 146.224 179.314 147.915L176.254 151.868L173.193 155.822ZM252.532 210.921L249.471 214.874L173.193 155.822L176.254 151.868L179.314 147.915L255.593 206.967L252.532 210.921Z" fill="#060402"/>
<path d="M255.703 154.469L259.569 157.64L253.227 165.372L249.361 162.201L252.532 158.335L255.703 154.469ZM197.931 120.017C195.796 118.266 195.485 115.115 197.236 112.98C198.987 110.845 202.138 110.534 204.273 112.285L201.102 116.151L197.931 120.017ZM252.532 158.335L249.361 162.201L197.931 120.017L201.102 116.151L204.273 112.285L255.703 154.469L252.532 158.335Z" fill="#060402"/>
<path d="M250.96 252.959L246.77 255.686L252.224 264.068L256.415 261.341L253.688 257.15L250.96 252.959ZM346.562 202.677C348.876 201.171 349.531 198.074 348.025 195.759C346.519 193.445 343.422 192.789 341.107 194.295L343.834 198.486L346.562 202.677ZM253.688 257.15L256.415 261.341L346.562 202.677L343.834 198.486L341.107 194.295L250.96 252.959L253.688 257.15Z" fill="#060402"/>
<path d="M251.672 154.469L247.806 157.64L254.148 165.372L258.014 162.201L254.843 158.335L251.672 154.469ZM309.444 120.017C311.579 118.266 311.89 115.115 310.139 112.98C308.388 110.845 305.237 110.534 303.102 112.285L306.273 116.151L309.444 120.017ZM254.843 158.335L258.014 162.201L309.444 120.017L306.273 116.151L303.102 112.285L251.672 154.469L254.843 158.335Z" fill="#060402"/>
<path d="M251.782 206.967L247.829 210.028L253.95 217.935L257.904 214.874L254.843 210.921L251.782 206.967ZM334.182 155.822C336.366 154.131 336.766 150.991 335.075 148.807C333.385 146.624 330.244 146.224 328.061 147.915L331.121 151.868L334.182 155.822ZM254.843 210.921L257.904 214.874L334.182 155.822L331.121 151.868L328.061 147.915L251.782 206.967L254.843 210.921Z" fill="#060402"/>
<path d="M248.688 289.822V294.822H258.688V289.822H253.688H248.688ZM258.688 55.7865C258.688 53.0251 256.449 50.7865 253.688 50.7865C250.926 50.7865 248.688 53.0251 248.688 55.7865H253.688H258.688ZM253.688 289.822H258.688V55.7865H253.688H248.688V289.822H253.688Z" fill="#060402"/>
<path d="M431.5 308V481C431.5 482.6 473.667 482.667 495 482" stroke="url(#paint0_linear_16_151)" stroke-width="24" stroke-linecap="round"/>
<path d="M290 366.5V436.5C290 499 380.5 505 380.5 436.5V366.5" stroke="url(#paint1_linear_16_151)" stroke-width="24" stroke-linecap="round"/>
<path d="M248.565 366.532L199.5 468M159 552.5L199.5 468M199.5 468L151 368.5" stroke="#3A3E42" stroke-width="24" stroke-linecap="round"/>
<path d="M64 354.982C80.1398 352.946 93.6909 357.535 104.075 366.149C104.754 360.097 109.927 355.428 116.146 355.503C122.773 355.584 128.08 361.02 128 367.647L127.4 416.968C127.466 418.308 127.5 419.653 127.5 420.999C127.5 422.837 127.427 424.656 127.285 426.454L126.499 491.148L126.5 491.186L126.499 491.225C125.95 520.785 116.232 541.216 99.9648 552.816C84.101 564.127 64.5823 565.167 48.0684 561.75L47.6318 561.661L47.2031 561.539C40.3394 559.577 35.206 558.081 29.6309 554.684C24.6018 551.619 19.3271 547.05 11.2129 540.129C6.17076 535.829 5.56956 528.255 9.87012 523.212C14.171 518.17 21.7458 517.569 26.7881 521.87C35.6732 529.448 39.1483 532.379 42.1191 534.19C44.4906 535.635 46.5677 536.389 53.334 538.329C65.6744 540.799 77.4899 539.366 86.0322 533.275C94.2594 527.408 102.038 515.35 102.502 490.82L102.717 473.055C92.0358 481.496 78.6349 486.499 64 486.499L63.1729 486.494C28.4831 486.042 0.444264 457.233 0.00488281 421.59L0 420.741C0.00024067 384.423 28.6539 354.982 64 354.982ZM66.5 376.499C45.7893 376.499 29 395.975 29 419.999C29 444.024 45.7893 463.499 66.5 463.499C84.656 463.499 99.7965 448.532 103.256 428.654L103.451 412.564C100.41 392.082 85.0252 376.499 66.5 376.499Z" fill="#3A3E42"/>
<circle cx="233" cy="538.5" r="16" fill="#3C3F44"/>
<circle cx="285" cy="538.5" r="16" fill="#767B7E"/>
<circle cx="336" cy="538.5" r="16" fill="#767A7D"/>
<circle cx="388" cy="538.5" r="16" fill="#E7793A"/>
<circle cx="439" cy="538.5" r="16" fill="#EC8A45"/>
<circle cx="491" cy="538.5" r="16" fill="#E5A053"/>
<defs>
<linearGradient id="paint0_linear_16_151" x1="463.25" y1="308" x2="463.25" y2="482.398" gradientUnits="userSpaceOnUse">
<stop stop-color="#FCA65B"/>
<stop offset="0.83" stop-color="#EF6F22"/>
</linearGradient>
<linearGradient id="paint1_linear_16_151" x1="335.25" y1="366.5" x2="335.25" y2="485.651" gradientUnits="userSpaceOnUse">
<stop stop-color="#FCA65B"/>
<stop offset="0.831731" stop-color="#EF6F22"/>
</linearGradient>
</defs>
</svg>