<svg width="507" height="269" viewBox="0 0 507 269" fill="none" xmlns="http://www.w3.org/2000/svg">
<path d="M431.5 12V185C431.5 186.6 473.667 186.667 495 186" stroke="url(#paint0_linear_16_129)" stroke-width="24" stroke-linecap="round"/>
<path d="M290 70.5V140.5C290 203 380.5 209 380.5 140.5V70.5" stroke="url(#paint1_linear_16_129)" stroke-width="24" stroke-linecap="round"/>
<path d="M248.565 70.5321L199.5 172M159 256.5L199.5 172M199.5 172L151 72.5" stroke="#3A3E42" stroke-width="24" stroke-linecap="round"/>
<path d="M64 58.9819C80.1398 56.9464 93.6909 61.5345 104.075 70.1489C104.754 64.0965 109.927 59.4279 116.146 59.5034C122.773 59.5841 128.08 65.0204 128 71.6469L127.4 120.968C127.466 122.308 127.5 123.653 127.5 124.999C127.5 126.837 127.427 128.656 127.285 130.454L126.499 195.148L126.5 195.186L126.499 195.225C125.95 224.785 116.232 245.216 99.9648 256.816C84.101 268.127 64.5823 269.167 48.0684 265.75L47.6318 265.661L47.2031 265.539C40.3394 263.577 35.206 262.081 29.6309 258.684C24.6018 255.619 19.3271 251.05 11.2129 244.129C6.17076 239.829 5.56956 232.255 9.87012 227.212C14.171 222.17 21.7458 221.569 26.7881 225.87C35.6732 233.448 39.1483 236.379 42.1191 238.19C44.4906 239.635 46.5677 240.389 53.334 242.329C65.6744 244.799 77.4899 243.366 86.0322 237.275C94.2594 231.408 102.038 219.35 102.502 194.82L102.717 177.055C92.0358 185.496 78.6349 190.499 64 190.499L63.1729 190.494C28.4831 190.042 0.444264 161.233 0.00488281 125.59L0 124.741C0.00024067 88.4232 28.6539 58.9819 64 58.9819ZM66.5 80.4995C45.7893 80.4995 29 99.9751 29 123.999C29 148.024 45.7893 167.499 66.5 167.499C84.656 167.499 99.7965 152.532 103.256 132.654L103.451 116.564C100.41 96.0821 85.0252 80.4995 66.5 80.4995Z" fill="#3A3E42"/>
<circle cx="233" cy="242.5" r="16" fill="#3C3F44"/>
<circle cx="285" cy="242.5" r="16" fill="#767B7E"/>
<circle cx="336" cy="242.5" r="16" fill="#767A7D"/>
<circle cx="388" cy="242.5" r="16" fill="#E7793A"/>
<circle cx="439" cy="242.5" r="16" fill="#EC8A45"/>
<circle cx="491" cy="242.5" r="16" fill="#E5A053"/>
<defs>
<linearGradient id="paint0_linear_16_129" x1="463.25" y1="12" x2="463.25" y2="186.398" gradientUnits="userSpaceOnUse">
<stop stop-color="#FCA65B"/>
<stop offset="0.83" stop-color="#EF6F22"/>
</linearGradient>
<linearGradient id="paint1_linear_16_129" x1="335.25" y1="70.5" x2="335.25" y2="189.651" gradientUnits="userSpaceOnUse">
<stop stop-color="#FCA65B"/>
<stop offset="0.831731" stop-color="#EF6F22"/>
</linearGradient>
</defs>
</svg>