<svg width="482" height="511" viewBox="0 0 482 511" fill="none" xmlns="http://www.w3.org/2000/svg">
<path d="M0 255.5C0 396.333 107.676 510.5 240.5 510.5V255.5L0.557467 238C0.187826 243.783 0 249.618 0 255.5Z" fill="#73787B"/>
<path d="M240.318 255V0C110.652 0 4.95343 108.802 0 245L240.318 255Z" fill="#EA7D3C"/>
<path d="M77.5 163C131.5 157.5 168.5 201 240.5 259.5V446.5C148.649 390.1 97.0764 358.261 33.0938 306.299C13.0588 291.97 0.000151161 268.511 0 242C0 198.873 34.5586 163.818 77.4941 163.015L77.5 163Z" fill="#E8E4DD"/>
<path d="M481 255C481 395.833 373.324 510 240.5 510V270L254.5 320L283 333L327.5 347L380.5 343L435.5 333L466.5 282L481 255Z" fill="#73777A"/>
<path d="M239.5 255V0C361.94 0 463.01 97.014 478.065 222.5L475.5 248L470.5 268.5L450.5 324.5L420 337L391.5 342.5L356 340.5L316.5 328.5L251 296L239.5 271V255Z" fill="#F39C50"/>
<path d="M479.009 222.055C480.321 232.84 481 243.836 481 255C481 298.127 470.903 338.753 453.078 374.366L453 374.5C452.948 374.593 452.895 374.686 452.844 374.778C418.254 448.525 348.634 475.196 239.5 443.5L240.5 354.5V265.5L241.489 266.426L241.5 265.5C358.901 370.415 449.356 357.809 478.865 221.12L478.881 221C478.882 221.011 478.883 221.021 478.885 221.032C478.923 220.855 478.962 220.678 479 220.5C479.005 221.019 479.005 221.537 479.009 222.055Z" fill="#E8E4DD"/>
<path d="M242.727 440.809L246.918 443.536L241.464 451.918L237.273 449.191L240 445L242.727 440.809ZM81.2728 347.673C78.9583 346.167 78.303 343.069 79.8092 340.755C81.3154 338.44 84.4127 337.785 86.7272 339.291L84 343.482L81.2728 347.673ZM240 445L237.273 449.191L81.2728 347.673L84 343.482L86.7272 339.291L242.727 440.809L240 445Z" fill="#060402"/>
<path d="M241.061 361.046L245.014 364.107L238.893 372.014L234.939 368.954L238 365L241.061 361.046ZM102.939 266.763C100.756 265.072 100.356 261.932 102.046 259.748C103.737 257.565 106.877 257.165 109.061 258.856L106 262.809L102.939 266.763ZM238 365L234.939 368.954L102.939 266.763L106 262.809L109.061 258.856L241.061 361.046L238 365Z" fill="#060402"/>
<path d="M241.171 270.134L245.037 273.305L238.695 281.037L234.829 277.866L238 274L241.171 270.134ZM145.829 204.866C143.694 203.115 143.383 199.964 145.134 197.829C146.885 195.694 150.036 195.383 152.171 197.134L149 201L145.829 204.866ZM238 274L234.829 277.866L145.829 204.866L149 201L152.171 197.134L241.171 270.134L238 274Z" fill="#060402"/>
<path d="M237.273 440.809L233.082 443.536L238.536 451.918L242.727 449.191L240 445L237.273 440.809ZM398.727 347.673C401.042 346.167 401.697 343.069 400.191 340.755C398.685 338.44 395.587 337.785 393.273 339.291L396 343.482L398.727 347.673ZM240 445L242.727 449.191L398.727 347.673L396 343.482L393.273 339.291L237.273 440.809L240 445Z" fill="#060402"/>
<path d="M238.829 270.134L234.963 273.305L241.305 281.037L245.171 277.866L242 274L238.829 270.134ZM334.171 204.866C336.306 203.115 336.617 199.964 334.866 197.829C333.115 195.694 329.964 195.383 327.829 197.134L331 201L334.171 204.866ZM242 274L245.171 277.866L334.171 204.866L331 201L327.829 197.134L238.829 270.134L242 274Z" fill="#060402"/>
<path d="M238.939 361.046L234.986 364.107L241.107 372.014L245.061 368.954L242 365L238.939 361.046ZM377.061 266.763C379.244 265.072 379.644 261.932 377.954 259.748C376.263 257.565 373.123 257.165 370.939 258.856L374 262.809L377.061 266.763ZM242 365L245.061 368.954L377.061 266.763L374 262.809L370.939 258.856L238.939 361.046L242 365Z" fill="#060402"/>
<path d="M235 505V510H245V505H240H235ZM245 100C245 97.2386 242.761 95 240 95C237.239 95 235 97.2386 235 100H240H245ZM240 505H245L245 100H240H235L235 505H240Z" fill="#060402"/>
</svg>